<svg width="864" height="1024" viewBox="0 0 864 1024" fill="none" xmlns="http://www.w3.org/2000/svg">
<path d="M1.68997 2.18097L1.05215 1.55432L1.05215 2.44849L1.05215 3.59839L1.05215 3.97339L1.42715 3.97339L2.45549 3.97339C18.0983 19.0734 38.1152 33.6196 61.642 47.6144L61.6441 47.6157C81.9346 59.5074 104.953 70.3892 129.635 82.0574C137.193 85.6303 144.907 89.2769 152.746 93.0488C161.111 97.0739 169.466 101.094 177.82 105.688L177.831 105.694C182.007 107.99 186.19 110.29 190.838 112.591C192.507 113.509 194.176 114.519 195.882 115.551C196.302 115.805 196.724 116.061 197.149 116.316C199.294 117.608 201.507 118.905 203.84 120.06L210.31 124.063L210.33 124.075L216.816 128.662L216.82 128.665L216.824 128.668C220.997 131.536 225.179 134.41 229.824 137.285L236.077 142.443L242.35 147.617C246.535 151.07 250.697 154.503 254.395 158.506C256.763 161.07 259.332 163.414 261.957 165.808C263.459 167.178 264.98 168.566 266.492 170.02C268.567 172.017 270.415 174.16 272.272 176.386C272.65 176.839 273.028 177.295 273.408 177.754C274.894 179.546 276.415 181.382 278.083 183.217C278.086 183.22 278.088 183.223 278.091 183.225L283.653 190.108C283.971 190.502 284.351 190.905 284.718 191.294C284.896 191.483 285.071 191.669 285.235 191.849C285.757 192.423 286.18 192.955 286.385 193.462L286.405 193.514L286.441 193.557L289.214 196.988C289.216 196.991 289.218 196.994 289.221 196.997C292.469 201.59 296.186 206.764 299.905 211.367C313.363 231.465 325.43 253.861 335.641 277.981C349.817 311.466 360.19 348.257 370.802 385.898C375.487 402.519 380.22 419.305 385.347 436.046C393.714 463.653 403.478 491.267 415.57 517.16L415.573 517.166L415.576 517.173C417.107 520.151 418.615 523.163 420.128 526.188C425.029 535.985 429.991 545.903 436.036 555.144L436.04 555.151C439.75 561.461 443.477 567.802 447.674 572.997L459.749 589.661L459.756 589.671L459.764 589.681C477.435 610.97 496.971 630.537 517.907 646.655L517.912 646.659C538.846 662.199 561.17 674.858 583.482 686.361L583.484 686.362C597.158 693.307 610.841 699.705 624.323 706.01C632.604 709.882 640.81 713.719 648.892 717.626C670.143 727.899 690.566 738.668 709.359 751.872C711.687 753.6 714.014 755.184 716.334 756.763L716.337 756.765C718.662 758.347 720.979 759.924 723.295 761.643C726.216 763.812 728.938 766.195 731.605 768.531C733.176 769.907 734.728 771.266 736.29 772.555L736.298 772.561L736.305 772.566C740.92 775.992 744.614 779.99 748.335 784.018L748.343 784.027L748.352 784.035L754.382 789.774L754.392 789.785L757.158 792.636L759.935 796.073C761.797 798.376 763.775 800.679 765.748 802.977L765.751 802.98C767.726 805.281 769.697 807.576 771.552 809.871L774.34 813.32L776.654 816.182L776.663 816.195L781.76 823.075C781.761 823.076 781.762 823.078 781.763 823.079C782.857 824.626 783.998 826.165 785.135 827.7C787.398 830.755 789.649 833.793 791.498 836.842C793.293 840.173 795.289 843.28 797.221 846.288C798.293 847.957 799.345 849.595 800.332 851.224L800.339 851.235L800.347 851.246C803.575 855.81 805.884 860.951 808.21 866.131C809.376 868.727 810.658 871.178 811.934 873.618L811.937 873.625C813.216 876.07 814.488 878.503 815.645 881.079C817.969 886.256 820.286 891.416 822.139 896.575L822.143 896.586L822.148 896.598L825.395 904.058L828.179 912.093L828.18 912.098L833.756 927.62C834.682 930.199 835.493 932.779 836.307 935.367L836.308 935.37C837.12 937.955 837.935 940.549 838.867 943.143C842.579 953.475 845.363 963.809 848.151 974.16L848.152 974.163C852.799 990.835 857.446 1007.51 862.093 1023.61L862.829 1023.51L862.829 910.821L862.829 910.756L862.806 910.694C861.874 908.099 860.826 905.505 859.781 902.919C858.736 900.333 857.694 897.754 856.768 895.177C856.299 893.728 855.714 892.282 855.136 890.85L855.134 890.846C854.552 889.406 853.977 887.981 853.517 886.559L853.51 886.538L853.501 886.517L849.791 878.485C849.789 878.482 849.788 878.479 849.787 878.476C848.622 875.595 847.342 872.859 846.067 870.133L846.065 870.13C844.787 867.398 843.513 864.676 842.356 861.812L842.351 861.801L842.346 861.789C839.555 856.034 836.764 850.855 833.512 845.106C830.716 839.343 827.456 834.157 824.209 828.991L824.204 828.983C820.952 823.81 817.699 818.635 813.981 812.885C812.344 810.28 810.475 807.824 808.557 805.379C808.168 804.884 807.778 804.389 807.387 803.894C805.845 801.94 804.294 799.975 802.816 797.918L802.812 797.912L797.236 790.439L797.232 790.433L797.227 790.427L795.833 788.702L794.904 787.552C794.888 787.533 794.875 787.516 794.865 787.502C794.869 787.48 794.871 787.455 794.871 787.429C794.871 787.305 794.82 787.209 794.779 787.147C794.737 787.085 794.681 787.022 794.617 786.958C794.49 786.83 794.283 786.648 793.951 786.373L793.51 785.828L790.722 782.378L790.715 782.37L790.708 782.362C788.616 780.061 786.641 777.905 784.666 775.749C782.691 773.593 780.717 771.438 778.626 769.138L778.622 769.133L775.369 765.684L772.116 762.234L772.106 762.224L772.096 762.214L765.126 755.89L765.119 755.884C763.515 754.495 761.915 752.972 760.288 751.423C759.565 750.735 758.837 750.042 758.102 749.354C755.723 747.129 753.272 744.961 750.697 743.221C747.834 740.743 744.781 738.47 741.672 736.157C739.736 734.716 737.778 733.259 735.832 731.726L735.821 731.718L735.809 731.71L728.142 726.536L720.475 721.362L720.471 721.359C690.838 701.997 659.283 688.526 627.733 675.057C615.219 669.716 602.707 664.374 590.316 658.666C568.493 648.325 547.604 636.837 527.646 623.055C507.697 608.705 489.599 591.482 472.423 571.954L460.349 556.44L460.344 556.435C456.179 551.281 452.473 545.55 449.227 539.813L449.219 539.8L449.211 539.787C443.187 530.937 438.082 521.333 432.89 511.566C431.686 509.302 430.479 507.03 429.254 504.757C417.184 480.058 407.433 454.206 398.608 427.77C393.397 411.992 388.509 396.057 383.631 380.159C371.992 342.219 360.418 304.493 344.694 269.635C333.995 244.887 320.506 221.868 306.088 201.727L306.088 201.727C304.227 199.137 302.367 196.691 300.51 194.249L300.506 194.245C298.647 191.801 296.791 189.361 294.936 186.779L294.93 186.77L294.923 186.762L292.135 183.312L292.13 183.307C290.743 181.589 290.256 180.988 288.847 179.823L282.821 173.515L282.816 173.51L282.81 173.504C280.729 171.501 278.762 169.354 276.786 167.197L276.782 167.193C274.81 165.04 272.828 162.876 270.729 160.856L270.724 160.851C266.549 156.834 262.362 152.804 258.172 149.347C253.983 145.317 249.794 141.862 245.144 138.409C240.954 134.954 236.301 131.5 232.114 128.622L232.107 128.617L232.099 128.612C229.78 127.177 227.576 125.742 225.369 124.305L225.366 124.303C223.16 122.866 220.95 121.427 218.624 119.988L212.118 115.964L212.103 115.954L212.087 115.946C209.754 114.792 207.483 113.664 205.671 111.983L205.631 111.946L205.582 111.922C203.273 110.779 201.077 109.492 198.929 108.2C198.509 107.946 198.089 107.693 197.672 107.44C195.961 106.405 194.273 105.383 192.586 104.455L192.579 104.451L192.571 104.448C191.225 103.782 189.915 103.114 188.629 102.458C185.502 100.864 182.524 99.3463 179.553 98.1198C174.077 95.2681 168.767 92.8512 163.535 90.4702C160.334 89.0134 157.162 87.5701 154 86.0486L153.989 86.0436C146.319 82.6638 138.794 79.4023 131.434 76.2125C106.229 65.2884 82.9634 55.205 62.4773 44.0879L62.475 44.0867C38.8058 31.4538 19.313 17.0981 3.5325 3.31592L3.42653 3.22339L3.28582 3.22339L2.75879 3.22339C2.40019 2.87622 2.04391 2.52875 1.68997 2.18097Z" stroke="white" stroke-opacity="0.1" stroke-width="0.75"/>
</svg>
