<svg width="681" height="1132" viewBox="0 0 681 1132" fill="none" xmlns="http://www.w3.org/2000/svg">
<path d="M678.601 1128.62L678.65 1128.71C678.769 1128.92 678.849 1129.07 678.915 1129.17C678.946 1129.23 678.97 1129.26 678.988 1129.29C678.989 1129.29 678.99 1129.29 678.991 1129.29C679.018 1129.29 679.063 1129.29 679.142 1129.29L679.142 1129.79L679.642 1129.79L679.642 1130.64L679.642 1131.14L679.142 1131.14C678.877 1131.14 678.659 1131.02 678.512 1130.92C678.366 1130.82 678.228 1130.69 678.119 1130.59L678.108 1130.58C677.986 1130.47 677.896 1130.39 677.815 1130.34C677.769 1130.31 677.743 1130.29 677.735 1130.29L677.596 1130.29L677.471 1130.21C663.516 1120.92 646.305 1108.25 627.234 1090.52C620.408 1084.94 613.326 1077.09 606.025 1069C603.353 1066.04 600.652 1063.05 597.924 1060.12L597.91 1060.1L597.897 1060.09C593.25 1054.18 588.14 1047.44 583.034 1040.7L583.027 1040.69C580.244 1037.32 577.445 1033.93 575.109 1030.54L575.104 1030.53C574.698 1029.92 574.301 1029.32 573.913 1028.74C571.64 1025.31 569.643 1022.31 567.648 1018.69C566.499 1016.6 565.234 1014.72 563.954 1012.82L563.949 1012.81C562.677 1010.92 561.391 1009.01 560.221 1006.89C560.218 1006.89 560.216 1006.88 560.214 1006.88L556.511 1001L556.503 1000.99L556.496 1000.97L552.779 994.224L552.774 994.216L552.77 994.207C550.449 989.573 548.012 984.938 545.572 980.298L545.571 980.295C543.132 975.657 540.691 971.014 538.365 966.371L538.357 966.354L538.35 966.338C534.169 956.217 529.525 945.258 524.883 935.145L524.876 935.13L524.87 935.114L524.869 935.113C520.688 924.148 516.504 913.177 512.32 901.362L512.319 901.36C496.045 854.936 483.029 801.769 471.411 746.088C469.977 739.32 468.543 732.513 467.103 725.678C456.877 677.135 446.345 627.144 433.315 579.097C425.885 552.118 417.526 525.986 407.776 500.7C404.372 492.274 400.971 484.603 397.566 476.923C395.865 473.086 394.162 469.247 392.458 465.31C389.675 460.258 386.422 454.351 383.631 448.441C383.629 448.438 383.628 448.435 383.626 448.432L374.816 431.596C374.814 431.593 374.813 431.59 374.811 431.588C350.682 389.471 321.914 357.464 291.754 332.194C265.488 310.187 238.168 293.29 210.984 276.477C206.944 273.979 202.907 271.482 198.877 268.97C167.725 249.557 137.482 227.599 110.491 198.875L110.483 198.867L110.475 198.858L90.9592 176.083L90.9451 176.066L90.9324 176.049C87.9152 171.835 84.7816 167.621 81.6448 163.403L81.6444 163.403C78.5088 159.187 75.3701 154.966 72.3472 150.745C72.3467 150.744 72.3462 150.743 72.3458 150.743L72.7523 150.452C67.1763 142.86 62.065 134.424 56.9537 125.989L678.601 1128.62ZM678.601 1128.62L678.521 1128.56C676.8 1127.2 675.031 1125.82 673.216 1124.41C660.323 1114.36 645.181 1102.56 629.323 1085.59L629.309 1085.57L629.294 1085.56C621.366 1078.36 613.436 1068.7 605.184 1058.64C603.8 1056.96 602.406 1055.26 601.002 1053.56C598.692 1050.62 596.379 1047.27 593.998 1043.79L593.629 1043.25C591.367 1039.94 589.043 1036.54 586.614 1033.34C585.902 1032.3 585.155 1031.28 584.394 1030.24C582.641 1027.84 580.82 1025.34 579.212 1022.42C578.044 1020.3 576.878 1018.4 575.718 1016.5L575.715 1016.5C574.553 1014.6 573.397 1012.71 572.242 1010.61L565.272 997.96L565.265 997.947L565.257 997.934L561.555 992.054L558.32 985.342C558.319 985.34 558.318 985.338 558.317 985.336C554.133 976.054 549.486 966.774 544.844 957.504C540.664 947.386 536.486 937.275 532.31 926.322C529.85 919.873 527.719 913.443 525.527 906.83C523.992 902.199 522.427 897.479 520.7 892.6C505.841 846.236 494.229 793.963 483.543 738.299C481.578 728.062 479.629 717.739 477.666 707.345C468.956 661.222 459.982 613.707 448.224 566.195C441.249 537.497 432.416 508.801 422.653 481.794C419.362 472.235 415.369 462.668 411.509 453.417C409.912 449.592 408.339 445.821 406.846 442.126L406.841 442.113L406.835 442.1L406.818 442.065L406.802 442.031L406.786 441.996L406.769 441.962L406.753 441.927L406.737 441.892L406.72 441.858L406.704 441.823L406.688 441.789L406.671 441.754L406.655 441.719L406.639 441.685L406.622 441.65L406.606 441.616L406.59 441.581L406.573 441.546L406.557 441.512L406.541 441.477L406.524 441.443L406.508 441.408L406.492 441.373L406.475 441.339L406.459 441.304L406.443 441.27L406.426 441.235L406.41 441.2L406.394 441.166L406.377 441.131L406.361 441.097L406.345 441.062L406.328 441.027L406.312 440.993L406.296 440.958L406.279 440.924L406.263 440.889L406.247 440.854L406.23 440.82L406.214 440.785L406.198 440.751L406.181 440.716L406.165 440.682L406.149 440.647L406.132 440.612L406.116 440.578L406.1 440.543L406.083 440.509L406.067 440.474L406.051 440.439L406.034 440.405L406.018 440.37L406.002 440.336L405.985 440.301L405.969 440.266L405.953 440.232L405.936 440.197L405.92 440.163L405.904 440.128L405.887 440.093L405.871 440.059L405.855 440.024L405.838 439.99L405.822 439.955L405.806 439.92L405.789 439.886L405.773 439.851L405.757 439.817L405.74 439.782L405.724 439.747L405.708 439.713L405.691 439.678L405.675 439.644L405.658 439.609L405.642 439.574L405.626 439.54L405.609 439.505L405.593 439.471L405.577 439.436L405.56 439.401L405.544 439.367L405.528 439.332L405.511 439.298L405.495 439.263L405.479 439.228L405.462 439.194L405.446 439.159L405.43 439.125L405.413 439.09L405.397 439.055L405.381 439.021L405.364 438.986L405.348 438.952L405.332 438.917L405.315 438.882L405.299 438.848L405.283 438.813L405.266 438.779L405.25 438.744L405.234 438.709L405.217 438.675L405.201 438.64L405.185 438.606L405.168 438.571L405.152 438.536L405.136 438.502L405.119 438.467L405.103 438.433L405.087 438.398L405.07 438.363L405.054 438.329L405.038 438.294L405.021 438.26L405.005 438.225L404.989 438.19L404.972 438.156L404.956 438.121L404.94 438.087L404.923 438.052L404.907 438.017L404.891 437.983L404.874 437.948L404.858 437.914L404.842 437.879L404.825 437.844L404.809 437.81L404.793 437.775L404.776 437.741L404.76 437.706L404.744 437.671L404.727 437.637L404.711 437.602L404.695 437.568L404.678 437.533L404.662 437.498L404.646 437.464L404.629 437.429L404.613 437.395L404.597 437.36L404.58 437.325L404.564 437.291L404.548 437.256L404.531 437.222L404.515 437.187L404.499 437.153L404.482 437.118L404.466 437.083L404.45 437.049L404.433 437.014L404.417 436.98L404.401 436.945L404.384 436.91L404.368 436.876L404.352 436.841L404.335 436.807L404.319 436.772L404.303 436.737L404.286 436.703L404.27 436.668L404.254 436.634L404.237 436.599L404.221 436.564L404.205 436.53L404.188 436.495L404.172 436.461L404.156 436.426L404.139 436.391L404.123 436.357L404.107 436.322L404.09 436.288L404.074 436.253L404.058 436.218L404.041 436.184L404.025 436.149L404.009 436.115L403.992 436.08L403.976 436.045L403.96 436.011L403.943 435.976L403.927 435.942L403.911 435.907L403.894 435.872L403.878 435.838L403.862 435.803L403.845 435.769L403.829 435.734L403.813 435.699L403.796 435.665L403.78 435.63L403.764 435.596L403.747 435.561L403.731 435.526L403.715 435.492L403.698 435.457L403.682 435.423L403.666 435.388L403.649 435.353L403.633 435.319L403.616 435.284L403.6 435.25L403.584 435.215L403.568 435.18L403.551 435.146L403.535 435.111L403.519 435.077L403.502 435.042L403.486 435.007L403.469 434.973L403.453 434.938L403.437 434.904L403.42 434.869L403.404 434.834L403.388 434.8L403.371 434.765L403.355 434.731L403.339 434.696L403.322 434.661L403.306 434.627L403.29 434.592L403.273 434.558L403.257 434.523L403.241 434.488L403.224 434.454L403.208 434.419L403.192 434.385L403.175 434.35L403.159 434.315L403.143 434.281L403.126 434.246L403.11 434.212L403.094 434.177L403.077 434.142L403.061 434.108L403.045 434.073L403.028 434.039L403.012 434.004L402.996 433.969L402.979 433.935L402.963 433.9L402.947 433.866L402.93 433.831L402.914 433.796L402.898 433.762L402.881 433.727L402.865 433.693L402.849 433.658L402.832 433.623L402.816 433.589L402.8 433.554L402.783 433.52L402.767 433.485L402.751 433.451L402.734 433.416L402.718 433.381L402.702 433.347L402.685 433.312L402.669 433.278L402.653 433.243L402.636 433.208L402.62 433.174L402.604 433.139L402.587 433.105L402.571 433.07L402.555 433.035L402.538 433.001L402.522 432.966L402.506 432.932L402.489 432.897L402.473 432.862L402.457 432.828L402.44 432.793L402.424 432.759L402.408 432.724L402.391 432.689L402.375 432.655L402.359 432.62L402.342 432.586L402.326 432.551L402.31 432.516L402.293 432.482L402.277 432.447L402.261 432.413L402.244 432.378L402.228 432.343L402.212 432.309L402.195 432.274L402.179 432.24L402.163 432.205L402.146 432.17L402.13 432.136L402.114 432.101L402.097 432.067L402.081 432.032L402.065 431.997L402.048 431.963L402.032 431.928L402.016 431.894L401.999 431.859L401.983 431.824L401.967 431.79L401.95 431.755L401.934 431.721L401.918 431.686L401.901 431.651L401.885 431.617L401.869 431.582L401.852 431.548L401.836 431.513L401.82 431.478L401.803 431.444L401.787 431.409L401.771 431.375L401.754 431.34L401.738 431.305L401.722 431.271L401.705 431.236L401.689 431.202L401.673 431.167L401.656 431.132L401.64 431.098L401.624 431.063L401.607 431.029L401.591 430.994L401.575 430.959L401.558 430.925L401.542 430.89L401.526 430.856L401.509 430.821L401.493 430.786L401.477 430.752L401.46 430.717L401.444 430.683L401.428 430.648L401.411 430.613L401.395 430.579L401.378 430.544L401.362 430.51L401.346 430.475L401.329 430.44L401.313 430.406L401.297 430.371L401.28 430.337L401.264 430.302L401.248 430.268L401.231 430.233L401.215 430.198L401.199 430.164L401.182 430.129L401.166 430.095L401.15 430.06L401.133 430.025L401.117 429.991L401.101 429.956L401.084 429.922L401.068 429.887L401.052 429.852L401.035 429.818L401.019 429.783L401.003 429.749L400.986 429.714L400.97 429.679L400.954 429.645L400.937 429.61L400.921 429.576L400.905 429.541L400.888 429.506L400.872 429.472L400.856 429.437L400.839 429.403L400.823 429.368L400.807 429.333L400.79 429.299L400.774 429.264L400.758 429.23L400.741 429.195L400.725 429.16L400.709 429.126L400.692 429.091L400.676 429.057L400.66 429.022L400.643 428.987L400.627 428.953L400.611 428.918L400.594 428.884L400.578 428.849L400.562 428.814L400.545 428.78L400.529 428.745L400.513 428.711L400.496 428.676L400.48 428.641L400.464 428.607L400.447 428.572L400.431 428.538L400.415 428.503L400.398 428.468L400.382 428.434L400.366 428.399L400.349 428.365L400.333 428.33L400.317 428.295L400.3 428.261L400.284 428.226L400.268 428.192L400.251 428.157L400.235 428.122L400.219 428.088L400.202 428.053L400.186 428.019L400.17 427.984L400.153 427.949L400.137 427.915L400.121 427.88L400.104 427.846L400.088 427.811L400.072 427.776L400.055 427.742L400.039 427.707L400.023 427.673L400.006 427.638L399.99 427.603L399.974 427.569L399.957 427.534L399.941 427.5L399.925 427.465L399.908 427.43L399.892 427.396L399.876 427.361L399.859 427.327L399.843 427.292L399.827 427.257L399.81 427.223L399.794 427.188L399.778 427.154L399.761 427.119L399.745 427.084L399.729 427.05L399.712 427.015L399.696 426.981L399.68 426.946L399.663 426.911L399.647 426.877L399.631 426.842L399.614 426.808L399.598 426.773L399.582 426.739L399.565 426.704L399.549 426.669L399.533 426.635L399.516 426.6L399.5 426.566L399.484 426.531L399.467 426.496L399.451 426.462L399.435 426.427L399.418 426.393L399.402 426.358L399.386 426.323L399.369 426.289L399.353 426.254L399.336 426.22L399.32 426.185L399.304 426.15L399.287 426.116L399.271 426.081L399.255 426.047L399.238 426.012L399.222 425.977L399.206 425.943L399.189 425.908L399.173 425.874L399.157 425.839L399.14 425.804L399.124 425.77L399.108 425.735L399.091 425.701L399.075 425.666L399.059 425.631L399.042 425.597L399.026 425.562L399.01 425.528L398.993 425.493L398.977 425.458L398.961 425.424L398.944 425.389L398.928 425.355L398.912 425.32L398.895 425.285L398.879 425.251L398.863 425.216L398.846 425.182L398.83 425.147L398.814 425.112L398.797 425.078L398.781 425.043L398.765 425.009L398.748 424.974L398.732 424.939L398.716 424.905L398.699 424.87L398.683 424.836L398.667 424.801L398.65 424.766L398.634 424.732L398.618 424.697L398.601 424.663L398.585 424.628L398.569 424.593L398.552 424.559L398.536 424.524L398.52 424.49L398.503 424.455L398.487 424.42L398.471 424.386L398.466 424.376L389.638 406.662L389.631 406.651C364.512 359.361 334.273 322.2 302.633 293.482C279.05 272.076 255.198 255.357 232.08 239.152C224.198 233.627 216.401 228.162 208.729 222.591L208.721 222.585C178.54 201.513 150.698 178.766 126.573 150.975C120.538 143.39 114.966 136.646 109.397 129.907C104.297 122.333 99.188 114.744 94.0765 107.994C88.9687 99.5642 83.8677 91.1452 79.2309 82.7278L79.2239 82.715L79.2161 82.7026L75.9512 77.5165L75.5577 76.088L75.542 76.0312L75.5135 75.9795L74.5977 74.317L73.2145 70.9686L73.2098 70.9579C72.2762 68.8395 71.2269 66.7229 70.1836 64.6184L70.1799 64.611C69.1335 62.5003 68.0931 60.4017 67.1691 58.305C66.2355 56.1864 65.1863 54.0698 64.1428 51.9652L64.1393 51.958C63.0928 49.8473 62.0525 47.7487 61.1285 45.652C59.2679 41.4301 57.4196 37.2346 56.0344 33.0437L56.0306 33.0322L56.0262 33.0208C54.3976 28.7972 52.6531 24.5747 50.9112 20.3586L50.9105 20.3568C49.1684 16.14 47.429 11.9298 45.8057 7.72049C45.3445 6.46458 44.9985 5.4177 44.6501 4.36367L44.6474 4.35557C44.2998 3.30396 43.9496 2.24467 43.483 0.974084L43.3627 0.646457L43.0137 0.646457L2.12305 0.646455L1.44464 0.646455L1.64545 1.29444C5.83313 14.8092 10.9501 28.32 16.5263 42.6607L16.5283 42.6655C18.3892 47.3107 20.3661 51.955 22.3406 56.5936L22.3417 56.596C24.3154 61.2329 26.2866 65.8639 28.1417 70.4941C29.416 73.9627 30.9144 77.0538 32.4698 80.2622C33.1931 81.7544 33.9288 83.2719 34.6599 84.8647L34.6675 84.8813L34.6764 84.8973C35.8324 86.996 36.9896 89.3066 38.1522 91.6282L38.1561 91.636C39.3155 93.9512 40.4803 96.2772 41.6464 98.3938C42.8024 100.492 43.9596 102.803 45.1222 105.125C46.2829 107.443 47.4491 109.771 48.6164 111.89L50.4751 115.264L51.4044 116.952L51.807 117.682L51.807 118.397L51.807 118.526L51.8691 118.639L52.7984 120.326L52.8054 120.338L52.8132 120.351L56.5261 126.248M678.601 1128.62L56.5261 126.248M56.5261 126.248L56.5305 126.256L56.5261 126.248ZM678.955 1129.29C678.955 1129.29 678.955 1129.29 678.955 1129.29C678.955 1129.29 678.955 1129.29 678.955 1129.29L678.955 1129.29Z" stroke="#181818" stroke-opacity="0.1"/>
</svg>
