<svg width="334" height="95" viewBox="0 0 334 95" fill="none" xmlns="http://www.w3.org/2000/svg">
<g filter="url(#filter0_d)">
<rect x="14.9999" y="15.8726" width="293.753" height="54" fill="#E3B873"/>
</g>
<path d="M84.7772 49.1984C84.1086 49.1984 83.5192 49.0907 83.0092 48.8754C82.5106 48.6487 82.1252 48.3654 81.8532 48.0254C81.5926 47.6854 81.4622 47.3397 81.4622 46.9884C81.4622 46.603 81.5756 46.297 81.8022 46.0704C82.0402 45.8324 82.3519 45.7134 82.7372 45.7134C82.8279 45.7134 82.9186 45.7247 83.0092 45.7474C83.0999 45.7587 83.1622 45.7644 83.1962 45.7644L83.4172 45.7984V48.5184L83.7402 48.6544C83.9442 48.7337 84.1766 48.7734 84.4372 48.7734C84.9926 48.7734 85.4459 48.626 85.7972 48.3314C86.1486 48.0367 86.4206 47.4927 86.6132 46.6994C86.8059 45.906 86.9022 44.784 86.9022 43.3334C86.8002 43.5034 86.6416 43.6734 86.4262 43.8434C85.9956 44.1834 85.5026 44.3534 84.9472 44.3534C84.1199 44.3534 83.3946 44.2004 82.7712 43.8944C82.1592 43.577 81.6889 43.1407 81.3602 42.5854C81.0316 42.03 80.8672 41.401 80.8672 40.6984C80.8672 39.4857 81.2412 38.5337 81.9892 37.8424C82.7486 37.1397 83.8196 36.7884 85.2022 36.7884C86.6302 36.7884 87.7522 37.2984 88.5682 38.3184C89.3842 39.3384 89.7922 40.8967 89.7922 42.9934C89.7922 45.0334 89.3446 46.5804 88.4492 47.6344C87.5652 48.677 86.3412 49.1984 84.7772 49.1984ZM85.2872 43.9284C85.7519 43.9284 86.1202 43.7017 86.3922 43.2484C86.6756 42.795 86.8172 42.0867 86.8172 41.1234C86.8172 39.684 86.6586 38.6584 86.3412 38.0464C86.0352 37.4344 85.6556 37.1284 85.2022 37.1284C84.9756 37.1284 84.7489 37.2417 84.5222 37.4684C84.3069 37.695 84.1256 38.0634 83.9782 38.5734C83.8309 39.0834 83.7572 39.735 83.7572 40.5284C83.7572 41.3217 83.8309 41.9734 83.9782 42.4834C84.1369 42.9934 84.3296 43.3617 84.5562 43.5884C84.7942 43.815 85.0379 43.9284 85.2872 43.9284ZM96.3392 49.1984C95.4212 49.1984 94.5882 48.9547 93.8402 48.4674C93.0922 47.98 92.4972 47.2717 92.0552 46.3424C91.6246 45.4017 91.4092 44.2854 91.4092 42.9934C91.4092 41.7014 91.6246 40.5907 92.0552 39.6614C92.4972 38.7207 93.0922 38.0067 93.8402 37.5194C94.5882 37.032 95.4212 36.7884 96.3392 36.7884C97.2572 36.7884 98.0902 37.032 98.8382 37.5194C99.5862 38.0067 100.176 38.7207 100.606 39.6614C101.048 40.5907 101.269 41.7014 101.269 42.9934C101.269 44.2854 101.048 45.4017 100.606 46.3424C100.176 47.2717 99.5862 47.98 98.8382 48.4674C98.0902 48.9547 97.2572 49.1984 96.3392 49.1984ZM96.3392 48.8584C97.6426 48.8584 98.2942 46.9034 98.2942 42.9934C98.2942 39.0834 97.6426 37.1284 96.3392 37.1284C95.0359 37.1284 94.3842 39.0834 94.3842 42.9934C94.3842 46.9034 95.0359 48.8584 96.3392 48.8584ZM109.178 39.1684V48.1784L110.538 48.6884V48.9434H107.308V48.6884L108.668 48.1784V37.5534L107.478 37.2984V37.0434H109.773C110.362 37.0434 110.827 37.168 111.167 37.4174C111.518 37.6554 111.818 38.0124 112.068 38.4884L115.774 45.5774L118.613 38.4884C118.805 37.9897 119.066 37.627 119.395 37.4004C119.723 37.1624 120.228 37.0434 120.908 37.0434H122.693V37.2984L121.673 37.5534V48.4334L122.693 48.6884V48.9434H117.848V48.6884L118.868 48.4334V39.1684L114.873 49.1134H114.363L109.178 39.1684ZM124.059 42.1434C124.059 41.826 124.127 41.5484 124.263 41.3104C124.41 41.061 124.58 40.857 124.773 40.6984C124.965 40.5284 125.237 40.3244 125.589 40.0864C126.076 39.769 126.439 39.4857 126.677 39.2364C126.915 38.9757 127.034 38.6414 127.034 38.2334C127.034 37.95 126.943 37.712 126.762 37.5194C126.592 37.3154 126.399 37.2134 126.184 37.2134C126.093 37.2134 126.002 37.2247 125.912 37.2474C125.821 37.2587 125.759 37.2644 125.725 37.2644L125.504 37.2984V38.9984L125.334 39.0494C125.175 39.072 125.033 39.0834 124.909 39.0834C124.648 39.0834 124.438 39.0097 124.28 38.8624C124.132 38.7037 124.059 38.494 124.059 38.2334C124.059 37.848 124.263 37.525 124.671 37.2644C125.079 37.0037 125.696 36.8734 126.524 36.8734C127.294 36.8734 127.884 37.032 128.292 37.3494C128.7 37.6667 128.904 38.0747 128.904 38.5734C128.904 38.9587 128.796 39.2874 128.581 39.5594C128.365 39.82 128.099 40.0354 127.782 40.2054C127.464 40.364 127.039 40.551 126.507 40.7664C125.997 40.9704 125.589 41.1517 125.283 41.3104C124.988 41.469 124.75 41.6617 124.569 41.8884H127.799C127.833 41.5937 127.957 41.2707 128.173 40.9194C128.263 40.772 128.365 40.6417 128.479 40.5284H128.819V42.6534H124.059V42.1434Z" fill="white"/>
<path fill-rule="evenodd" clip-rule="evenodd" d="M35.2502 27.2544C35.2502 27.0435 35.4285 26.8726 35.6483 26.8726H64.3115C64.5313 26.8726 64.7096 27.0435 64.7096 27.2544V54.8765C64.7096 55.0874 64.5313 55.2584 64.3115 55.2584C64.0916 55.2584 63.9134 55.0874 63.9134 54.8765V27.6363H35.6483C35.4285 27.6363 35.2502 27.4653 35.2502 27.2544Z" fill="white" stroke="white" stroke-width="0.5"/>
<path d="M35.668 55.4343L35.793 55.4343L35.793 55.3093L35.793 31.5506L37.4189 33.1765C37.622 33.3795 37.9512 33.3795 38.1542 33.1765C38.3573 32.9734 38.3573 32.6442 38.1542 32.4411L35.6407 29.9276C35.4377 29.7246 35.1085 29.7246 34.9054 29.9276L32.3919 32.4411C32.1888 32.6442 32.1888 32.9734 32.3919 33.1765C32.595 33.3795 32.9242 33.3795 33.1272 33.1765L34.7531 31.5506L34.7531 55.3093L34.7531 55.4343L34.8781 55.4343L35.668 55.4343Z" fill="white" stroke="white" stroke-width="0.25"/>
<path d="M34.7521 55.7043V55.8293H34.8771L58.7603 55.8293L57.1261 57.4549C56.922 57.658 56.922 57.9876 57.1261 58.1907C57.3299 58.3935 57.6601 58.3935 57.8639 58.1907L60.3905 55.6772C60.5947 55.4741 60.5947 55.1445 60.3905 54.9414L57.8639 52.4279C57.6601 52.2252 57.3299 52.2252 57.1261 52.4279C56.922 52.6311 56.922 52.9606 57.1261 53.1637L58.7603 54.7894L34.8771 54.7894H34.7521V54.9144V55.7043Z" fill="white" stroke="white" stroke-width="0.25"/>
<path fill-rule="evenodd" clip-rule="evenodd" d="M46.1624 26.9882C46.3167 27.1425 46.3167 27.3926 46.1624 27.5468L41.4229 32.2863C41.2687 32.4405 41.0186 32.4405 40.8644 32.2863C40.7101 32.1321 40.7101 31.882 40.8644 31.7277L45.6039 26.9882C45.7581 26.834 46.0082 26.834 46.1624 26.9882Z" fill="white" stroke="white" stroke-width="0.5" stroke-linecap="round" stroke-linejoin="round"/>
<path fill-rule="evenodd" clip-rule="evenodd" d="M64.4622 45.8147C64.6164 45.9689 64.6164 46.219 64.4622 46.3732L60.1177 50.7177C59.9634 50.872 59.7133 50.872 59.5591 50.7177C59.4049 50.5635 59.4049 50.3134 59.5591 50.1592L63.9036 45.8147C64.0579 45.6604 64.308 45.6604 64.4622 45.8147Z" fill="white" stroke="white" stroke-width="0.5" stroke-linecap="round" stroke-linejoin="round"/>
<path fill-rule="evenodd" clip-rule="evenodd" d="M52.085 26.9865C52.2402 27.1397 52.2418 27.3898 52.0885 27.545L41.8196 37.9456C41.6664 38.1008 41.4163 38.1024 41.2611 37.9491C41.1059 37.7959 41.1043 37.5458 41.2575 37.3906L51.5264 26.99C51.6797 26.8348 51.9298 26.8332 52.085 26.9865Z" fill="white" stroke="white" stroke-width="0.5" stroke-linecap="round" stroke-linejoin="round"/>
<path fill-rule="evenodd" clip-rule="evenodd" d="M64.5938 39.2314C64.748 39.3856 64.748 39.6357 64.5938 39.79L54.5882 49.7956C54.434 49.9498 54.1839 49.9498 54.0296 49.7956C53.8754 49.6413 53.8754 49.3912 54.0296 49.237L64.0352 39.2314C64.1895 39.0772 64.4396 39.0772 64.5938 39.2314Z" fill="white" stroke="white" stroke-width="0.5" stroke-linecap="round" stroke-linejoin="round"/>
<path fill-rule="evenodd" clip-rule="evenodd" d="M58.4084 27.1216C58.5614 27.2771 58.5594 27.5271 58.4039 27.6801L41.9473 43.8734C41.7918 44.0264 41.5417 44.0244 41.3888 43.8689C41.2358 43.7134 41.2378 43.4634 41.3933 43.3104L57.8498 27.1171C58.0053 26.9641 58.2554 26.9661 58.4084 27.1216Z" fill="white" stroke="white" stroke-width="0.5" stroke-linecap="round" stroke-linejoin="round"/>
<path fill-rule="evenodd" clip-rule="evenodd" d="M64.5939 33.0441C64.7481 33.1984 64.7481 33.4485 64.5939 33.6027L48.0056 50.1909C47.8514 50.3452 47.6013 50.3452 47.4471 50.1909C47.2928 50.0367 47.2928 49.7866 47.4471 49.6324L64.0353 33.0441C64.1896 32.8899 64.4396 32.8899 64.5939 33.0441Z" fill="white" stroke="white" stroke-width="0.5" stroke-linecap="round" stroke-linejoin="round"/>
<path fill-rule="evenodd" clip-rule="evenodd" d="M64.3306 27.1193C64.4848 27.2736 64.4848 27.5237 64.3306 27.6779L41.6863 50.3222C41.5321 50.4764 41.282 50.4764 41.1278 50.3222C40.9735 50.1679 40.9735 49.9178 41.1278 49.7636L63.772 27.1193C63.9263 26.9651 64.1763 26.9651 64.3306 27.1193Z" fill="white" stroke="white" stroke-width="0.5" stroke-linecap="round" stroke-linejoin="round"/>
<path d="M215.409 48.9434V48.6884L216.599 48.3484V39.0154L214.814 40.2734L214.474 39.8484L217.568 37.0434H219.404V48.3484L220.594 48.6884V48.9434H215.409ZM221.785 48.1784C221.785 47.5097 221.915 46.9034 222.176 46.3594C222.448 45.804 222.776 45.3224 223.162 44.9144C223.547 44.5064 224.051 44.0247 224.675 43.4694C225.253 42.9594 225.706 42.5344 226.035 42.1944C226.363 41.843 226.641 41.452 226.868 41.0214C227.094 40.5794 227.208 40.1034 227.208 39.5934C227.208 38.8454 227.026 38.2617 226.664 37.8424C226.301 37.423 225.831 37.2134 225.253 37.2134C224.924 37.2134 224.59 37.2587 224.25 37.3494L223.893 37.4684V40.1884L223.672 40.2394C223.49 40.262 223.337 40.2734 223.213 40.2734C222.827 40.2734 222.516 40.16 222.278 39.9334C222.051 39.6954 221.938 39.3837 221.938 38.9984C221.938 38.6357 222.074 38.2844 222.346 37.9444C222.629 37.6044 223.043 37.3267 223.587 37.1114C224.142 36.896 224.811 36.7884 225.593 36.7884C227.123 36.7884 228.256 37.0944 228.993 37.7064C229.729 38.3184 230.098 39.174 230.098 40.2734C230.098 40.9647 229.916 41.5597 229.554 42.0584C229.202 42.557 228.766 42.9707 228.245 43.2994C227.735 43.628 227.049 44.002 226.188 44.4214C225.462 44.7727 224.873 45.0844 224.42 45.3564C223.978 45.617 223.564 45.9344 223.179 46.3084C222.805 46.6824 222.538 47.1074 222.38 47.5834H228.67C228.749 46.9714 228.942 46.4614 229.248 46.0534C229.372 45.8607 229.52 45.6907 229.69 45.5434H230.2V48.9434H221.785V48.1784ZM236.068 49.1984C234.64 49.1984 233.558 48.915 232.821 48.3484C232.096 47.7817 231.733 47.045 231.733 46.1384C231.733 45.515 232.005 44.9144 232.549 44.3364C233.093 43.747 233.756 43.3277 234.538 43.0784C233.79 42.659 233.218 42.2 232.821 41.7014C232.436 41.1914 232.243 40.5737 232.243 39.8484C232.243 38.9417 232.606 38.205 233.331 37.6384C234.068 37.0717 235.15 36.7884 236.578 36.7884C237.292 36.7884 237.915 36.9187 238.448 37.1794C238.992 37.44 239.411 37.78 239.706 38.1994C240.001 38.6187 240.148 39.055 240.148 39.5084C240.148 40.041 239.916 40.5567 239.451 41.0554C238.998 41.554 238.465 41.8884 237.853 42.0584C238.884 42.5117 239.666 43.05 240.199 43.6734C240.732 44.2967 240.998 45.0617 240.998 45.9684C240.998 46.5577 240.817 47.096 240.454 47.5834C240.091 48.0707 239.542 48.4617 238.805 48.7564C238.068 49.051 237.156 49.1984 236.068 49.1984ZM237.343 41.7184C237.774 41.5257 238.119 41.248 238.38 40.8854C238.652 40.5227 238.788 40.0637 238.788 39.5084C238.788 39.1004 238.686 38.7207 238.482 38.3694C238.289 38.018 238.034 37.7404 237.717 37.5364C237.411 37.321 237.088 37.2134 236.748 37.2134C236.261 37.2134 235.853 37.406 235.524 37.7914C235.207 38.1654 235.048 38.681 235.048 39.3384C235.048 40.245 235.813 41.0384 237.343 41.7184ZM235.898 48.7734C236.623 48.7734 237.184 48.575 237.581 48.1784C237.989 47.7704 238.193 47.2037 238.193 46.4784C238.193 45.9344 237.921 45.3847 237.377 44.8294C236.833 44.274 236.113 43.8037 235.218 43.4184C234.583 43.645 234.085 43.985 233.722 44.4384C233.359 44.8804 233.178 45.447 233.178 46.1384C233.178 46.6144 233.297 47.0564 233.535 47.4644C233.784 47.861 234.113 48.1784 234.521 48.4164C234.94 48.6544 235.399 48.7734 235.898 48.7734ZM246.107 48.5184H247.467C247.648 48.3937 247.846 48.1954 248.062 47.9234C248.458 47.4247 248.685 46.8014 248.742 46.0534L249.082 41.0384L247.892 40.6984V40.4434H255.967V40.6984L254.947 40.9534V48.5184H256.477V51.7484H255.967C255.672 51.5557 255.428 51.3234 255.236 51.0514C254.76 50.4394 254.522 49.7367 254.522 48.9434H248.062C248.062 49.7254 247.818 50.428 247.331 51.0514C247.138 51.3234 246.9 51.5557 246.617 51.7484H246.107V48.5184ZM252.227 48.5184V40.8684H249.592L249.252 46.0534C249.195 46.7674 248.98 47.3907 248.606 47.9234C248.436 48.1614 248.254 48.3597 248.062 48.5184H252.227ZM257.416 48.9434V48.6884L258.436 48.4334V40.9534L257.416 40.6984V40.4434H262.176V40.6984L261.156 40.9534V44.4384H263.706V40.9534L262.686 40.6984V40.4434H267.446V40.6984L266.426 40.9534V48.4334L267.446 48.6884V48.9434H262.686V48.6884L263.706 48.4334V44.8634H261.156V48.4334L262.176 48.6884V48.9434H257.416ZM273.394 49.1984C271.944 49.1984 270.816 48.8017 270.011 48.0084C269.207 47.2037 268.804 46.0987 268.804 44.6934C268.804 43.7754 268.98 42.9764 269.331 42.2964C269.683 41.6164 270.17 41.095 270.793 40.7324C271.428 40.3697 272.153 40.1884 272.969 40.1884C273.785 40.1884 274.499 40.3414 275.111 40.6474C275.735 40.9534 276.211 41.367 276.539 41.8884C276.879 42.3984 277.049 42.965 277.049 43.5884C277.049 43.8717 277.021 44.1154 276.964 44.3194L276.879 44.6084C276.392 44.7104 275.865 44.7954 275.298 44.8634C274.108 45.0334 272.907 45.1184 271.694 45.1184C271.694 46.433 271.876 47.3737 272.238 47.9404C272.601 48.4957 273.1 48.7734 273.734 48.7734C274.176 48.7734 274.584 48.6714 274.958 48.4674C275.344 48.252 275.644 47.9744 275.859 47.6344C276.086 47.283 276.199 46.926 276.199 46.5634H276.624C276.624 47.0167 276.488 47.4474 276.216 47.8554C275.944 48.2634 275.565 48.592 275.077 48.8414C274.59 49.0794 274.029 49.1984 273.394 49.1984ZM271.694 44.6934C272.42 44.6934 273.009 44.665 273.462 44.6084C273.655 44.597 273.859 44.5687 274.074 44.5234C274.086 44.4667 274.114 44.342 274.159 44.1494C274.216 43.866 274.244 43.5657 274.244 43.2484C274.244 42.3077 274.12 41.622 273.87 41.1914C273.621 40.7494 273.321 40.5284 272.969 40.5284C272.119 40.5284 271.694 41.9167 271.694 44.6934ZM283.417 39.2534C282.544 39.2534 281.898 39.1174 281.479 38.8454C281.071 38.5734 280.867 38.2277 280.867 37.8084C280.867 37.5137 280.963 37.27 281.156 37.0774C281.349 36.8847 281.592 36.7884 281.887 36.7884C281.91 36.7884 282.04 36.8054 282.278 36.8394L282.482 36.8734V38.7434C282.493 38.7434 282.573 38.7717 282.72 38.8284C282.879 38.885 283.111 38.9134 283.417 38.9134C283.723 38.9134 283.95 38.885 284.097 38.8284C284.256 38.7717 284.341 38.7434 284.352 38.7434V36.8734L284.556 36.8394C284.794 36.8054 284.924 36.7884 284.947 36.7884C285.242 36.7884 285.485 36.8847 285.678 37.0774C285.871 37.27 285.967 37.5137 285.967 37.8084C285.967 38.2277 285.757 38.5734 285.338 38.8454C284.93 39.1174 284.29 39.2534 283.417 39.2534ZM278.317 48.9434V48.6884L279.337 48.4334V40.9534L278.317 40.6984V40.4434H283.077V40.6984L282.057 40.9534V46.5634L284.777 41.8884V40.9534L283.757 40.6984V40.4434H288.517V40.6984L287.497 40.9534V48.4334L288.517 48.6884V48.9434H283.757V48.6884L284.777 48.4334V42.8234L282.057 47.4984V48.4334L283.077 48.6884V48.9434H278.317Z" fill="white"/>
<path d="M150.09 69.9075L150.09 15.8726" stroke="white" stroke-width="0.75"/>
<path d="M191.597 29.0712C191.334 27.8185 190.193 26.8726 188.829 26.8726C188.517 26.8726 188.264 27.1183 188.264 27.4222C188.264 27.7262 188.517 27.9719 188.829 27.9719C189.763 27.9719 190.524 28.7118 190.524 29.6209C190.524 30.5301 189.763 31.2699 188.829 31.2699C188.517 31.2699 188.264 31.5156 188.264 31.8196C188.264 32.1236 188.517 32.3693 188.829 32.3693C190.193 32.3693 191.334 31.4233 191.597 30.1706H198.998V35.1176H168.491V30.1706H176.4H178.095C178.407 30.1706 178.66 29.9249 178.66 29.6209C178.66 29.3169 178.407 29.0712 178.095 29.0712H177.069C177.303 28.4325 177.925 27.9719 178.66 27.9719C179.595 27.9719 180.355 28.7118 180.355 29.6209C180.355 30.5301 179.595 31.2699 178.66 31.2699C178.348 31.2699 178.095 31.5156 178.095 31.8196C178.095 32.1236 178.348 32.3693 178.66 32.3693C180.218 32.3693 181.485 31.1364 181.485 29.6209C181.485 28.1055 180.218 26.8726 178.66 26.8726C177.296 26.8726 176.155 27.8185 175.892 29.0712H167.361V36.217V58.2039H200.128V36.217V29.0712H191.597ZM198.998 57.1045H168.491V36.217H198.998V57.1045Z" fill="white"/>
<path d="M182.05 27.9719C182.984 27.9719 183.745 28.7118 183.745 29.6209C183.745 30.5301 182.984 31.2699 182.05 31.2699C181.738 31.2699 181.485 31.5156 181.485 31.8196C181.485 32.1236 181.738 32.3693 182.05 32.3693C183.607 32.3693 184.874 31.1364 184.874 29.6209C184.874 28.1055 183.607 26.8726 182.05 26.8726C181.738 26.8726 181.485 27.1183 181.485 27.4222C181.485 27.7262 181.738 27.9719 182.05 27.9719Z" fill="white"/>
<path d="M185.439 27.9719C186.374 27.9719 187.134 28.7118 187.134 29.6209C187.134 30.5301 186.374 31.2699 185.439 31.2699C185.128 31.2699 184.874 31.5156 184.874 31.8196C184.874 32.1236 185.128 32.3693 185.439 32.3693C186.997 32.3693 188.264 31.1364 188.264 29.6209C188.264 28.1055 186.997 26.8726 185.439 26.8726C185.128 26.8726 184.874 27.1183 184.874 27.4222C184.874 27.7262 185.128 27.9719 185.439 27.9719Z" fill="white"/>
<path d="M172.446 40.6142H184.874C185.186 40.6142 185.439 40.3685 185.439 40.0646C185.439 39.7606 185.186 39.5149 184.874 39.5149H172.446C172.134 39.5149 171.881 39.7606 171.881 40.0646C171.881 40.3685 172.134 40.6142 172.446 40.6142Z" fill="white"/>
<path d="M195.043 48.3098H186.569C186.257 48.3098 186.004 48.5555 186.004 48.8595C186.004 49.1635 186.257 49.4092 186.569 49.4092H195.043C195.355 49.4092 195.608 49.1635 195.608 48.8595C195.608 48.5555 195.355 48.3098 195.043 48.3098Z" fill="white"/>
<path d="M172.446 45.0119H178.095C178.407 45.0119 178.66 44.7662 178.66 44.4623C178.66 44.1583 178.407 43.9126 178.095 43.9126H172.446C172.134 43.9126 171.881 44.1583 171.881 44.4623C171.881 44.7662 172.134 45.0119 172.446 45.0119Z" fill="white"/>
<path d="M195.043 52.7073H189.394C189.082 52.7073 188.829 52.953 188.829 53.2569C188.829 53.5609 189.082 53.8066 189.394 53.8066H195.043C195.355 53.8066 195.608 53.5609 195.608 53.2569C195.608 52.953 195.355 52.7073 195.043 52.7073Z" fill="white"/>
<path d="M183.18 44.4623C183.18 44.7662 183.433 45.0119 183.745 45.0119H192.219C192.531 45.0119 192.784 44.7662 192.784 44.4623C192.784 44.1583 192.531 43.9126 192.219 43.9126H183.745C183.433 43.9126 183.18 44.1583 183.18 44.4623Z" fill="white"/>
<path d="M181.321 44.8525C181.423 44.7481 181.485 44.6051 181.485 44.4622C181.485 44.3188 181.423 44.1759 181.321 44.072C181.112 43.8686 180.728 43.8686 180.519 44.072C180.417 44.1759 180.355 44.3188 180.355 44.4622C180.355 44.6051 180.417 44.7481 180.519 44.8525C180.626 44.9564 180.773 45.0119 180.92 45.0119C181.067 45.0119 181.214 44.9564 181.321 44.8525Z" fill="white"/>
<path d="M174.706 48.8595C174.706 49.1635 174.959 49.4092 175.27 49.4092H183.745C184.056 49.4092 184.31 49.1635 184.31 48.8595C184.31 48.5555 184.056 48.3098 183.745 48.3098H175.27C174.959 48.3098 174.706 48.5555 174.706 48.8595Z" fill="white"/>
<path d="M172.446 49.4092C172.593 49.4092 172.74 49.3487 172.847 49.2498C172.949 49.1453 173.011 49.0024 173.011 48.8595C173.011 48.716 172.949 48.5731 172.847 48.4747C172.638 48.2659 172.254 48.2659 172.045 48.4692C171.943 48.5731 171.881 48.716 171.881 48.8595C171.881 49.0024 171.943 49.1453 172.045 49.2498C172.152 49.3487 172.293 49.4092 172.446 49.4092Z" fill="white"/>
<path d="M195.043 45.0119C195.19 45.0119 195.337 44.9564 195.444 44.8525C195.552 44.7481 195.608 44.6051 195.608 44.4622C195.608 44.3188 195.552 44.1759 195.444 44.072C195.23 43.8686 194.851 43.8686 194.642 44.072C194.541 44.1759 194.478 44.3188 194.478 44.4622C194.478 44.6051 194.541 44.7481 194.642 44.8525C194.75 44.9564 194.896 45.0119 195.043 45.0119Z" fill="white"/>
<path d="M186.569 52.7073H172.446C172.134 52.7073 171.881 52.953 171.881 53.2569C171.881 53.5609 172.134 53.8066 172.446 53.8066H186.569C186.881 53.8066 187.134 53.5609 187.134 53.2569C187.134 52.953 186.881 52.7073 186.569 52.7073Z" fill="white"/>
<defs>
<filter id="filter0_d" x="-6.10352e-05" y="0.872559" width="333.753" height="94" filterUnits="userSpaceOnUse" color-interpolation-filters="sRGB">
<feFlood flood-opacity="0" result="BackgroundImageFix"/>
<feColorMatrix in="SourceAlpha" type="matrix" values="0 0 0 0 0 0 0 0 0 0 0 0 0 0 0 0 0 0 127 0"/>
<feOffset dx="5" dy="5"/>
<feGaussianBlur stdDeviation="10"/>
<feColorMatrix type="matrix" values="0 0 0 0 0.890196 0 0 0 0 0.721569 0 0 0 0 0.45098 0 0 0 0.5 0"/>
<feBlend mode="normal" in2="BackgroundImageFix" result="effect1_dropShadow"/>
<feBlend mode="normal" in="SourceGraphic" in2="effect1_dropShadow" result="shape"/>
</filter>
</defs>
</svg>
