<svg width="334" height="95" viewBox="0 0 334 95" fill="none" xmlns="http://www.w3.org/2000/svg">
<g filter="url(#filter0_d)">
<rect x="15" y="15.8726" width="293.753" height="54" fill="#E3B873"/>
</g>
<path d="M84.0973 48.9429V48.6879L85.2873 48.3479V45.7979H80.4423L80.1023 45.2879L86.4773 36.8729H88.0923V45.0329H89.8773V45.7979H88.0923V48.3479L89.2823 48.6879V48.9429H84.0973ZM81.0373 45.0329H85.2873V39.4229L81.0373 45.0329ZM95.6586 49.1979C94.7406 49.1979 93.9076 48.9542 93.1596 48.4669C92.4116 47.9795 91.8166 47.2712 91.3746 46.3419C90.944 45.4012 90.7286 44.2849 90.7286 42.9929C90.7286 41.7009 90.944 40.5902 91.3746 39.6609C91.8166 38.7202 92.4116 38.0062 93.1596 37.5189C93.9076 37.0315 94.7406 36.7879 95.6586 36.7879C96.5766 36.7879 97.4096 37.0315 98.1576 37.5189C98.9056 38.0062 99.495 38.7202 99.9256 39.6609C100.368 40.5902 100.589 41.7009 100.589 42.9929C100.589 44.2849 100.368 45.4012 99.9256 46.3419C99.495 47.2712 98.9056 47.9795 98.1576 48.4669C97.4096 48.9542 96.5766 49.1979 95.6586 49.1979ZM95.6586 48.8579C96.962 48.8579 97.6136 46.9029 97.6136 42.9929C97.6136 39.0829 96.962 37.1279 95.6586 37.1279C94.3553 37.1279 93.7036 39.0829 93.7036 42.9929C93.7036 46.9029 94.3553 48.8579 95.6586 48.8579ZM108.497 39.1679V48.1779L109.857 48.6879V48.9429H106.627V48.6879L107.987 48.1779V37.5529L106.967 37.2979V37.0429H109.092C109.681 37.0429 110.146 37.1675 110.486 37.4169C110.837 37.6549 111.138 38.0119 111.387 38.4879L115.093 45.5769L117.932 38.4879C118.125 37.9892 118.385 37.6265 118.714 37.3999C119.043 37.1619 119.547 37.0429 120.227 37.0429H122.012V37.2979L120.992 37.5529V48.4329L122.012 48.6879V48.9429H117.167V48.6879L118.187 48.4329V39.1679L114.192 49.1129H113.682L108.497 39.1679ZM123.378 42.1429C123.378 41.8255 123.446 41.5479 123.582 41.3099C123.729 41.0605 123.899 40.8565 124.092 40.6979C124.285 40.5279 124.557 40.3239 124.908 40.0859C125.395 39.7685 125.758 39.4852 125.996 39.2359C126.234 38.9752 126.353 38.6409 126.353 38.2329C126.353 37.9495 126.262 37.7115 126.081 37.5189C125.911 37.3149 125.718 37.2129 125.503 37.2129C125.412 37.2129 125.322 37.2242 125.231 37.2469C125.14 37.2582 125.078 37.2639 125.044 37.2639L124.823 37.2979V38.9979L124.653 39.0489C124.494 39.0715 124.353 39.0829 124.228 39.0829C123.967 39.0829 123.758 39.0092 123.599 38.8619C123.452 38.7032 123.378 38.4935 123.378 38.2329C123.378 37.8475 123.582 37.5245 123.99 37.2639C124.398 37.0032 125.016 36.8729 125.843 36.8729C126.614 36.8729 127.203 37.0315 127.611 37.3489C128.019 37.6662 128.223 38.0742 128.223 38.5729C128.223 38.9582 128.115 39.2869 127.9 39.5589C127.685 39.8195 127.418 40.0349 127.101 40.2049C126.784 40.3635 126.359 40.5505 125.826 40.7659C125.316 40.9699 124.908 41.1512 124.602 41.3099C124.307 41.4685 124.069 41.6612 123.888 41.8879H127.118C127.152 41.5932 127.277 41.2702 127.492 40.9189C127.583 40.7715 127.685 40.6412 127.798 40.5279H128.138V42.6529H123.378V42.1429Z" fill="white"/>
<path fill-rule="evenodd" clip-rule="evenodd" d="M35.2503 27.2544C35.2503 27.0435 35.4285 26.8726 35.6484 26.8726H64.3115C64.5314 26.8726 64.7096 27.0435 64.7096 27.2544V54.8765C64.7096 55.0874 64.5314 55.2584 64.3115 55.2584C64.0916 55.2584 63.9134 55.0874 63.9134 54.8765V27.6363H35.6484C35.4285 27.6363 35.2503 27.4653 35.2503 27.2544Z" fill="white" stroke="white" stroke-width="0.5" stroke-linecap="round" stroke-linejoin="round"/>
<path d="M35.6681 55.4348L35.7931 55.4348L35.7931 55.3098L35.7931 31.5511L37.419 33.177C37.622 33.38 37.9512 33.38 38.1543 33.177C38.3574 32.9739 38.3574 32.6447 38.1543 32.4417L35.6408 29.9282C35.4377 29.7251 35.1085 29.7251 34.9055 29.9282L32.392 32.4417C32.1889 32.6447 32.1889 32.9739 32.392 33.177C32.595 33.38 32.9243 33.38 33.1273 33.177L34.7532 31.5511L34.7532 55.3098L34.7532 55.4348L34.8782 55.4348L35.6681 55.4348Z" fill="white" stroke="white" stroke-width="0.25"/>
<path d="M34.7522 55.704V55.829H34.8772L58.7603 55.829L57.1262 57.4547C56.922 57.6578 56.922 57.9874 57.1262 58.1905C57.33 58.3932 57.6602 58.3932 57.864 58.1905L60.3906 55.677C60.5947 55.4739 60.5947 55.1443 60.3906 54.9412L57.864 52.4277C57.6602 52.2249 57.33 52.2249 57.1262 52.4277C56.922 52.6308 56.922 52.9604 57.1262 53.1635L58.7603 54.7891L34.8772 54.7891H34.7522V54.9141V55.704Z" fill="white" stroke="white" stroke-width="0.25"/>
<path fill-rule="evenodd" clip-rule="evenodd" d="M46.1624 26.9882C46.3167 27.1425 46.3167 27.3926 46.1624 27.5468L41.423 32.2863C41.2687 32.4405 41.0186 32.4405 40.8644 32.2863C40.7102 32.132 40.7102 31.882 40.8644 31.7277L45.6039 26.9882C45.7581 26.834 46.0082 26.834 46.1624 26.9882Z" fill="white" stroke="white" stroke-width="0.5" stroke-linecap="round" stroke-linejoin="round"/>
<path fill-rule="evenodd" clip-rule="evenodd" d="M64.4623 45.8149C64.6165 45.9691 64.6165 46.2192 64.4623 46.3735L60.1177 50.718C59.9635 50.8722 59.7134 50.8722 59.5592 50.718C59.4049 50.5637 59.4049 50.3137 59.5592 50.1594L63.9037 45.8149C64.0579 45.6607 64.308 45.6607 64.4623 45.8149Z" fill="white" stroke="white" stroke-width="0.5" stroke-linecap="round" stroke-linejoin="round"/>
<path fill-rule="evenodd" clip-rule="evenodd" d="M52.0851 26.9865C52.2403 27.1397 52.2419 27.3898 52.0886 27.545L41.8197 37.9456C41.6665 38.1008 41.4164 38.1024 41.2612 37.9491C41.106 37.7959 41.1044 37.5458 41.2576 37.3906L51.5265 26.99C51.6798 26.8348 51.9299 26.8332 52.0851 26.9865Z" fill="white" stroke="white" stroke-width="0.5" stroke-linecap="round" stroke-linejoin="round"/>
<path fill-rule="evenodd" clip-rule="evenodd" d="M64.5938 39.2316C64.7481 39.3859 64.7481 39.636 64.5938 39.7902L54.5882 49.7958C54.434 49.95 54.1839 49.95 54.0297 49.7958C53.8754 49.6416 53.8754 49.3915 54.0297 49.2372L64.0353 39.2316C64.1895 39.0774 64.4396 39.0774 64.5938 39.2316Z" fill="white" stroke="white" stroke-width="0.5" stroke-linecap="round" stroke-linejoin="round"/>
<path fill-rule="evenodd" clip-rule="evenodd" d="M58.4084 27.1221C58.5614 27.2776 58.5594 27.5276 58.4039 27.6806L41.9474 43.8739C41.7919 44.0269 41.5418 44.0249 41.3888 43.8694C41.2358 43.7139 41.2379 43.4638 41.3933 43.3109L57.8499 27.1176C58.0054 26.9646 58.2554 26.9666 58.4084 27.1221Z" fill="white" stroke="white" stroke-width="0.5" stroke-linecap="round" stroke-linejoin="round"/>
<path fill-rule="evenodd" clip-rule="evenodd" d="M64.5939 33.0444C64.7482 33.1986 64.7482 33.4487 64.5939 33.6029L48.0057 50.1912C47.8515 50.3454 47.6014 50.3454 47.4472 50.1912C47.2929 50.0369 47.2929 49.7869 47.4472 49.6326L64.0354 33.0444C64.1896 32.8902 64.4397 32.8902 64.5939 33.0444Z" fill="white" stroke="white" stroke-width="0.5" stroke-linecap="round" stroke-linejoin="round"/>
<path fill-rule="evenodd" clip-rule="evenodd" d="M64.3306 27.1198C64.4849 27.2741 64.4849 27.5241 64.3306 27.6784L41.6864 50.3226C41.5321 50.4769 41.2821 50.4769 41.1278 50.3226C40.9736 50.1684 40.9736 49.9183 41.1278 49.7641L63.7721 27.1198C63.9263 26.9656 64.1764 26.9656 64.3306 27.1198Z" fill="white" stroke="white" stroke-width="0.5" stroke-linecap="round" stroke-linejoin="round"/>
<path d="M219.146 49.0112V48.7562L220.336 48.4162V45.8662H215.491L215.151 45.3562L221.526 36.9412H223.141V45.1012H224.926V45.8662H223.141V48.4162L224.331 48.7562V49.0112H219.146ZM216.086 45.1012H220.336V39.4912L216.086 45.1012ZM230.691 49.2662C229.263 49.2662 228.181 48.9829 227.444 48.4162C226.719 47.8496 226.356 47.1129 226.356 46.2062C226.356 45.5829 226.628 44.9822 227.172 44.4042C227.716 43.8149 228.379 43.3956 229.161 43.1462C228.413 42.7269 227.841 42.2679 227.444 41.7692C227.059 41.2592 226.866 40.6416 226.866 39.9162C226.866 39.0096 227.229 38.2729 227.954 37.7062C228.691 37.1396 229.773 36.8562 231.201 36.8562C231.915 36.8562 232.538 36.9866 233.071 37.2472C233.615 37.5079 234.034 37.8479 234.329 38.2672C234.624 38.6866 234.771 39.1229 234.771 39.5762C234.771 40.1089 234.539 40.6246 234.074 41.1232C233.621 41.6219 233.088 41.9562 232.476 42.1262C233.507 42.5796 234.289 43.1179 234.822 43.7412C235.355 44.3646 235.621 45.1296 235.621 46.0362C235.621 46.6256 235.44 47.1639 235.077 47.6512C234.714 48.1386 234.165 48.5296 233.428 48.8242C232.691 49.1189 231.779 49.2662 230.691 49.2662ZM231.966 41.7862C232.397 41.5936 232.742 41.3159 233.003 40.9532C233.275 40.5906 233.411 40.1316 233.411 39.5762C233.411 39.1682 233.309 38.7886 233.105 38.4372C232.912 38.0859 232.657 37.8082 232.34 37.6042C232.034 37.3889 231.711 37.2812 231.371 37.2812C230.884 37.2812 230.476 37.4739 230.147 37.8592C229.83 38.2332 229.671 38.7489 229.671 39.4062C229.671 40.3129 230.436 41.1062 231.966 41.7862ZM230.521 48.8412C231.246 48.8412 231.807 48.6429 232.204 48.2462C232.612 47.8382 232.816 47.2716 232.816 46.5462C232.816 46.0022 232.544 45.4526 232 44.8972C231.456 44.3419 230.736 43.8716 229.841 43.4862C229.206 43.7129 228.708 44.0529 228.345 44.5062C227.982 44.9482 227.801 45.5149 227.801 46.2062C227.801 46.6822 227.92 47.1242 228.158 47.5322C228.407 47.9289 228.736 48.2462 229.144 48.4842C229.563 48.7222 230.022 48.8412 230.521 48.8412ZM240.73 48.5862H242.09C242.271 48.4616 242.469 48.2632 242.685 47.9912C243.081 47.4926 243.308 46.8692 243.365 46.1212L243.705 41.1062L242.515 40.7662V40.5112H250.59V40.7662L249.57 41.0212V48.5862H251.1V51.8162H250.59C250.295 51.6236 250.051 51.3912 249.859 51.1192C249.383 50.5072 249.145 49.8046 249.145 49.0112H242.685C242.685 49.7932 242.441 50.4959 241.954 51.1192C241.761 51.3912 241.523 51.6236 241.24 51.8162H240.73V48.5862ZM246.85 48.5862V40.9362H244.215L243.875 46.1212C243.818 46.8352 243.603 47.4586 243.229 47.9912C243.059 48.2292 242.877 48.4276 242.685 48.5862H246.85ZM252.039 49.0112V48.7562L253.059 48.5012V41.0212L252.039 40.7662V40.5112H256.799V40.7662L255.779 41.0212V44.5062H258.329V41.0212L257.309 40.7662V40.5112H262.069V40.7662L261.049 41.0212V48.5012L262.069 48.7562V49.0112H257.309V48.7562L258.329 48.5012V44.9312H255.779V48.5012L256.799 48.7562V49.0112H252.039ZM268.017 49.2662C266.567 49.2662 265.439 48.8696 264.634 48.0762C263.83 47.2716 263.427 46.1666 263.427 44.7612C263.427 43.8432 263.603 43.0442 263.954 42.3642C264.306 41.6842 264.793 41.1629 265.416 40.8002C266.051 40.4376 266.776 40.2562 267.592 40.2562C268.408 40.2562 269.122 40.4092 269.734 40.7152C270.358 41.0212 270.834 41.4349 271.162 41.9562C271.502 42.4662 271.672 43.0329 271.672 43.6562C271.672 43.9396 271.644 44.1832 271.587 44.3872L271.502 44.6762C271.015 44.7782 270.488 44.8632 269.921 44.9312C268.731 45.1012 267.53 45.1862 266.317 45.1862C266.317 46.5009 266.499 47.4416 266.861 48.0082C267.224 48.5636 267.723 48.8412 268.357 48.8412C268.799 48.8412 269.207 48.7392 269.581 48.5352C269.967 48.3199 270.267 48.0422 270.482 47.7022C270.709 47.3509 270.822 46.9939 270.822 46.6312H271.247C271.247 47.0846 271.111 47.5152 270.839 47.9232C270.567 48.3312 270.188 48.6599 269.7 48.9092C269.213 49.1472 268.652 49.2662 268.017 49.2662ZM266.317 44.7612C267.043 44.7612 267.632 44.7329 268.085 44.6762C268.278 44.6649 268.482 44.6366 268.697 44.5912C268.709 44.5346 268.737 44.4099 268.782 44.2172C268.839 43.9339 268.867 43.6336 268.867 43.3162C268.867 42.3756 268.743 41.6899 268.493 41.2592C268.244 40.8172 267.944 40.5962 267.592 40.5962C266.742 40.5962 266.317 41.9846 266.317 44.7612ZM278.04 39.3212C277.167 39.3212 276.521 39.1852 276.102 38.9132C275.694 38.6412 275.49 38.2956 275.49 37.8762C275.49 37.5816 275.586 37.3379 275.779 37.1452C275.972 36.9526 276.215 36.8562 276.51 36.8562C276.533 36.8562 276.663 36.8732 276.901 36.9072L277.105 36.9412V38.8112C277.116 38.8112 277.196 38.8396 277.343 38.8962C277.502 38.9529 277.734 38.9812 278.04 38.9812C278.346 38.9812 278.573 38.9529 278.72 38.8962C278.879 38.8396 278.964 38.8112 278.975 38.8112V36.9412L279.179 36.9072C279.417 36.8732 279.547 36.8562 279.57 36.8562C279.865 36.8562 280.108 36.9526 280.301 37.1452C280.494 37.3379 280.59 37.5816 280.59 37.8762C280.59 38.2956 280.38 38.6412 279.961 38.9132C279.553 39.1852 278.913 39.3212 278.04 39.3212ZM272.94 49.0112V48.7562L273.96 48.5012V41.0212L272.94 40.7662V40.5112H277.7V40.7662L276.68 41.0212V46.6312L279.4 41.9562V41.0212L278.38 40.7662V40.5112H283.14V40.7662L282.12 41.0212V48.5012L283.14 48.7562V49.0112H278.38V48.7562L279.4 48.5012V42.8912L276.68 47.5662V48.5012L277.7 48.7562V49.0112H272.94Z" fill="white"/>
<path d="M150.09 69.9075L150.09 15.8726" stroke="white" stroke-width="0.75"/>
<path d="M191.6 29.0722C191.337 27.819 190.196 26.8726 188.831 26.8726C188.519 26.8726 188.266 27.1184 188.266 27.4225C188.266 27.7266 188.519 27.9724 188.831 27.9724C189.766 27.9724 190.527 28.7126 190.527 29.6221C190.527 30.5317 189.766 31.2719 188.831 31.2719C188.519 31.2719 188.266 31.5177 188.266 31.8218C188.266 32.1259 188.519 32.3717 188.831 32.3717C190.196 32.3717 191.337 31.4253 191.6 30.1721H199.005V35.1213H168.484V30.1721H176.397H178.093C178.405 30.1721 178.658 29.9262 178.658 29.6221C178.658 29.318 178.405 29.0722 178.093 29.0722H177.066C177.3 28.4332 177.922 27.9724 178.658 27.9724C179.593 27.9724 180.353 28.7126 180.353 29.6221C180.353 30.5317 179.593 31.2719 178.658 31.2719C178.346 31.2719 178.093 31.5177 178.093 31.8218C178.093 32.1259 178.346 32.3717 178.658 32.3717C180.216 32.3717 181.484 31.1383 181.484 29.6221C181.484 28.106 180.216 26.8726 178.658 26.8726C177.293 26.8726 176.152 27.819 175.889 29.0722H167.354V36.2211V58.2178H200.135V36.2211V29.0722H191.6ZM199.005 57.1179H168.484V36.2211H199.005V57.1179Z" fill="white"/>
<path d="M182.049 27.9724C182.984 27.9724 183.745 28.7126 183.745 29.6221C183.745 30.5317 182.984 31.2719 182.049 31.2719C181.737 31.2719 181.484 31.5177 181.484 31.8218C181.484 32.1259 181.737 32.3717 182.049 32.3717C183.607 32.3717 184.875 31.1383 184.875 29.6221C184.875 28.106 183.607 26.8726 182.049 26.8726C181.737 26.8726 181.484 27.1184 181.484 27.4225C181.484 27.7266 181.737 27.9724 182.049 27.9724Z" fill="white"/>
<path d="M185.44 27.9724C186.375 27.9724 187.136 28.7126 187.136 29.6221C187.136 30.5317 186.375 31.2719 185.44 31.2719C185.128 31.2719 184.875 31.5177 184.875 31.8218C184.875 32.1259 185.128 32.3717 185.44 32.3717C186.998 32.3717 188.266 31.1383 188.266 29.6221C188.266 28.106 186.998 26.8726 185.44 26.8726C185.128 26.8726 184.875 27.1184 184.875 27.4225C184.875 27.7266 185.128 27.9724 185.44 27.9724Z" fill="white"/>
<path d="M172.441 40.6201H184.875C185.187 40.6201 185.44 40.3743 185.44 40.0702C185.44 39.7661 185.187 39.5203 184.875 39.5203H172.441C172.129 39.5203 171.876 39.7661 171.876 40.0702C171.876 40.3743 172.129 40.6201 172.441 40.6201Z" fill="white"/>
<path d="M195.048 48.3191H186.571C186.259 48.3191 186.005 48.5649 186.005 48.869C186.005 49.1731 186.259 49.4189 186.571 49.4189H195.048C195.36 49.4189 195.614 49.1731 195.614 48.869C195.614 48.5649 195.36 48.3191 195.048 48.3191Z" fill="white"/>
<path d="M172.441 45.0198H178.093C178.405 45.0198 178.658 44.7739 178.658 44.4698C178.658 44.1657 178.405 43.9199 178.093 43.9199H172.441C172.129 43.9199 171.876 44.1657 171.876 44.4698C171.876 44.7739 172.129 45.0198 172.441 45.0198Z" fill="white"/>
<path d="M195.048 52.7185H189.397C189.085 52.7185 188.831 52.9643 188.831 53.2684C188.831 53.5725 189.085 53.8183 189.397 53.8183H195.048C195.36 53.8183 195.614 53.5725 195.614 53.2684C195.614 52.9643 195.36 52.7185 195.048 52.7185Z" fill="white"/>
<path d="M183.179 44.4698C183.179 44.7739 183.433 45.0198 183.745 45.0198H192.222C192.534 45.0198 192.788 44.7739 192.788 44.4698C192.788 44.1657 192.534 43.9199 192.222 43.9199H183.745C183.433 43.9199 183.179 44.1657 183.179 44.4698Z" fill="white"/>
<path d="M181.32 44.8605C181.422 44.756 181.484 44.613 181.484 44.47C181.484 44.3265 181.422 44.1835 181.32 44.0796C181.111 43.8761 180.727 43.8761 180.517 44.0796C180.416 44.1835 180.354 44.3265 180.354 44.47C180.354 44.613 180.416 44.756 180.517 44.8605C180.625 44.9644 180.772 45.02 180.919 45.02C181.066 45.02 181.213 44.9644 181.32 44.8605Z" fill="white"/>
<path d="M174.702 48.869C174.702 49.1731 174.955 49.4189 175.267 49.4189H183.745C184.057 49.4189 184.31 49.1731 184.31 48.869C184.31 48.5649 184.057 48.3191 183.745 48.3191H175.267C174.955 48.3191 174.702 48.5649 174.702 48.869Z" fill="white"/>
<path d="M172.441 49.4194C172.588 49.4194 172.735 49.3589 172.842 49.26C172.944 49.1555 173.006 49.0125 173.006 48.8695C173.006 48.726 172.944 48.583 172.842 48.4846C172.633 48.2756 172.249 48.2756 172.04 48.4791C171.938 48.583 171.876 48.726 171.876 48.8695C171.876 49.0125 171.938 49.1555 172.04 49.26C172.147 49.3589 172.288 49.4194 172.441 49.4194Z" fill="white"/>
<path d="M195.048 45.02C195.195 45.02 195.342 44.9644 195.45 44.8605C195.557 44.756 195.614 44.613 195.614 44.47C195.614 44.3265 195.557 44.1835 195.45 44.0796C195.235 43.8761 194.856 43.8761 194.647 44.0796C194.545 44.1835 194.483 44.3265 194.483 44.47C194.483 44.613 194.545 44.756 194.647 44.8605C194.755 44.9644 194.902 45.02 195.048 45.02Z" fill="white"/>
<path d="M186.571 52.7185H172.441C172.129 52.7185 171.876 52.9643 171.876 53.2684C171.876 53.5725 172.129 53.8183 172.441 53.8183H186.571C186.883 53.8183 187.136 53.5725 187.136 53.2684C187.136 52.9643 186.883 52.7185 186.571 52.7185Z" fill="white"/>
<defs>
<filter id="filter0_d" x="0" y="0.872559" width="333.753" height="94" filterUnits="userSpaceOnUse" color-interpolation-filters="sRGB">
<feFlood flood-opacity="0" result="BackgroundImageFix"/>
<feColorMatrix in="SourceAlpha" type="matrix" values="0 0 0 0 0 0 0 0 0 0 0 0 0 0 0 0 0 0 127 0"/>
<feOffset dx="5" dy="5"/>
<feGaussianBlur stdDeviation="10"/>
<feColorMatrix type="matrix" values="0 0 0 0 0.890196 0 0 0 0 0.721569 0 0 0 0 0.45098 0 0 0 0.5 0"/>
<feBlend mode="normal" in2="BackgroundImageFix" result="effect1_dropShadow"/>
<feBlend mode="normal" in="SourceGraphic" in2="effect1_dropShadow" result="shape"/>
</filter>
</defs>
</svg>
